<?xml version="1.0" encoding="UTF-8" standalone="no"?>
<!-- Created with Inkscape (http://www.inkscape.org/) -->

<svg
   width="210mm"
   height="297mm"
   viewBox="0 0 210 297"
   version="1.1"
   id="svg5"
   xmlns:xlink="http://www.w3.org/1999/xlink"
   xmlns="http://www.w3.org/2000/svg"
   xmlns:svg="http://www.w3.org/2000/svg">
  <defs
     id="defs2">
    <linearGradient
       id="linearGradient15729">
      <stop
         style="stop-color:#4593fd;stop-opacity:1;"
         offset="0"
         id="stop15725" />
      <stop
         style="stop-color:#2d74f9;stop-opacity:1"
         offset="1"
         id="stop15727" />
    </linearGradient>
    <linearGradient
       xlink:href="#linearGradient15729"
       id="linearGradient15731"
       x1="100.46949"
       y1="72.051437"
       x2="100.46949"
       y2="102.13675"
       gradientUnits="userSpaceOnUse"
       gradientTransform="translate(7.4083337)" />
    <linearGradient
       xlink:href="#linearGradient15729"
       id="linearGradient21124"
       x1="567.55438"
       y1="308.82129"
       x2="566.81531"
       y2="349.93848"
       gradientUnits="userSpaceOnUse" />
  </defs>
  <g
     id="layer1">
    <path
       id="path952"
       style="fill:#000000;stroke:none;stroke-width:4.10200005;stroke-linecap:round;stroke-linejoin:round;stroke-opacity:1;stroke-miterlimit:4;stroke-dasharray:none;fill-opacity:1"
       d="m 413.00781,36.9375 c -20.81832,0.356644 -22.69712,30.269553 0,30.519531 22.69712,-0.249978 20.81832,-30.162887 0,-30.519531 z m -18.69726,32.269531 c -2.19651,0 -4.67377,0.741084 -6.15039,2.367188 l -21.60352,21.386719 c -9.36684,10.315202 3.47126,20.891882 11.21289,11.773442 l 9.7207,-9.449224 c 2.49124,-2.93427 4.70704,-2.455616 4.70704,1.021485 v 17.156249 c 0,2.74813 -0.44468,5.56153 -1.46485,8.11328 L 377.6582,154.2793 c -4.79166,11.98519 12.98002,20.70669 18.53907,6 l 16.18554,-42.81641 16.1836,42.81641 c 5.55904,14.70669 23.3327,5.98519 18.54101,-6 l -13.07617,-32.70313 c -1.02017,-2.55175 -1.46484,-5.36515 -1.46484,-8.11328 V 96.306641 c 0,-3.477101 2.21579,-3.955755 4.70703,-1.021485 l 9.7207,9.449224 c 7.74164,9.11844 20.57973,-1.45824 11.21289,-11.773442 L 436.60352,71.574219 c -1.47663,-1.626104 -3.95193,-2.367188 -6.14844,-2.367188 z m 12.26172,10.826172 c 2.5172,0.0051 4.98333,1.567932 5.78125,5.460938 2.22028,-10.832712 17.44762,-3.605317 10.59375,4.986328 L 412.35352,103.75977 401.81641,90.480469 c -4.37655,-5.515328 0.26867,-10.456313 4.75586,-10.447266 z"
       transform="scale(0.26458333)" />
    <path
       style="color:#000000;fill:#000000;stroke-linecap:round;stroke-linejoin:round;-inkscape-stroke:none"
       d="m 148.42383,9.2441406 c -3.00715,0.051516 -4.76592,2.3082354 -4.83594,4.5605474 -0.035,1.126155 0.3359,2.267469 1.15234,3.130859 0.33281,0.351947 0.78486,0.61062 1.25782,0.845703 h -2.51172 c -0.70019,0 -1.48462,0.211717 -2.01953,0.800781 l 0.0195,-0.02148 -5.71485,5.660156 a 0.52921956,0.52921956 0 0 0 -0.0195,0.01953 c -1.38056,1.520324 -1.18275,3.300025 -0.18359,4.228516 0.99916,0.928491 2.76242,0.977241 3.94531,-0.416016 l -0.0351,0.03711 2.57226,-2.5 a 0.52921956,0.52921956 0 0 0 0.0352,-0.03711 c 0.21668,-0.255221 0.27971,-0.243915 0.2832,-0.261718 0.0127,0.05128 0.0293,0.0799 0.0293,0.189453 v 4.539062 c 0,0.670024 -0.10978,1.351292 -0.34961,1.951172 l -3.45899,8.652344 c -0.73404,1.836013 0.27705,3.545187 1.7168,4.128906 0.71988,0.291859 1.56125,0.322991 2.33008,-0.02148 0.76882,-0.344475 1.43695,-1.060525 1.84375,-2.136719 l 3.78711,-10.017578 3.78711,10.017578 c 0.4068,1.076203 1.07488,1.79225 1.84375,2.136719 0.76887,0.344468 1.61014,0.313335 2.33008,0.02148 1.43986,-0.583701 2.45279,-2.29287 1.71875,-4.128906 l -3.45899,-8.652344 c -0.23982,-0.599875 -0.35156,-1.281144 -0.35156,-1.951172 v -4.539062 c 0,-0.109552 0.0166,-0.138174 0.0293,-0.189453 0.003,0.01778 0.0683,0.0063 0.28515,0.261718 a 0.52921956,0.52921956 0 0 0 0.0332,0.03711 l 2.57227,2.5 -0.0352,-0.03711 c 1.18289,1.393257 2.94617,1.344507 3.94532,0.416016 0.99915,-0.928491 1.19891,-2.708191 -0.18164,-4.228516 a 0.52921956,0.52921956 0 0 0 -0.0195,-0.01953 l -5.71679,-5.660156 0.0195,0.02148 c -0.53475,-0.588888 -1.3174,-0.800781 -2.01758,-0.800781 h -2.18164 c 0.47295,-0.235083 0.925,-0.493756 1.25781,-0.845703 0.81645,-0.86339 1.18736,-2.004704 1.15235,-3.130859 -0.07,-2.252312 -1.82879,-4.5090312 -4.83594,-4.5605474 a 0.52921956,0.52921956 0 0 0 -0.0195,0 z m 0.01,1.0605474 c 2.49356,0.04785 3.73489,1.790762 3.78907,3.533203 0.0271,0.872519 -0.25803,1.728973 -0.86524,2.371093 -0.60616,0.641021 -1.5427,1.090696 -2.92383,1.107422 -1.38112,-0.01673 -2.31766,-0.466401 -2.92382,-1.107422 -0.60721,-0.64212 -0.89236,-1.498574 -0.86524,-2.371093 0.0542,-1.742444 1.29549,-3.485363 3.78906,-3.533203 z m -4.94726,8.535156 h 9.56445 c 0.46214,0 0.98775,0.181534 1.23438,0.453125 a 0.52921956,0.52921956 0 0 0 0.0195,0.01953 l 5.69726,5.642578 c 1.09311,1.206877 0.83514,2.189078 0.24414,2.738281 -0.59172,0.549875 -1.55059,0.695109 -2.41601,-0.324218 a 0.52921956,0.52921956 0 0 0 -0.0352,-0.03711 l -2.57226,-2.5 0.0352,0.03711 c -0.38885,-0.458007 -0.8271,-0.797049 -1.38672,-0.675782 -0.27981,0.06063 -0.514,0.274704 -0.63281,0.509766 -0.11881,0.235062 -0.1582,0.491146 -0.1582,0.777344 v 4.539062 c 0,0.784191 0.12381,1.593325 0.42383,2.34375 l 3.46093,8.652344 c 0.53375,1.335042 -0.17061,2.365795 -1.13281,2.755859 -0.4811,0.195032 -1.01308,0.210339 -1.5,-0.0078 -0.48692,-0.218151 -0.95849,-0.673602 -1.28711,-1.542969 l -4.28125,-11.328125 a 0.52921956,0.52921956 0 0 0 -0.99023,0 l -4.28321,11.328125 c -0.32861,0.869377 -0.79828,1.324824 -1.28515,1.542969 -0.48687,0.218144 -1.01897,0.202836 -1.5,0.0078 -0.96206,-0.390046 -1.66657,-1.420794 -1.13281,-2.755859 l 3.45898,-8.652344 c 0.30001,-0.750421 0.42578,-1.559554 0.42578,-2.34375 v -4.539062 c 0,-0.286199 -0.0413,-0.542282 -0.16016,-0.777344 -0.11881,-0.235062 -0.353,-0.449133 -0.63281,-0.509766 -0.55962,-0.121265 -0.99591,0.217774 -1.38476,0.675782 l 0.0332,-0.03711 -2.57031,2.5 a 0.52921956,0.52921956 0 0 0 -0.0352,0.03711 c -0.86542,1.019328 -1.82624,0.874094 -2.41797,0.324218 -0.591,-0.549203 -0.84897,-1.531405 0.24414,-2.738281 l 5.69922,-5.642578 a 0.52921956,0.52921956 0 0 0 0.0195,-0.01953 c 0.24647,-0.271415 0.77224,-0.453125 1.23438,-0.453125 z m 3.24609,1.80664 c -0.7882,-0.0016 -1.5435,0.404604 -1.96094,1.087891 -0.41743,0.683287 -0.39636,1.67189 0.28711,2.533203 l 2.78711,3.513672 a 0.52921956,0.52921956 0 0 0 0.82813,0.002 l 2.80273,-3.513672 c 0.53548,-0.671247 0.68506,-1.421059 0.50391,-2.044922 -0.18115,-0.623862 -0.64474,-1.091028 -1.19141,-1.349609 -0.54666,-0.258581 -1.20317,-0.322089 -1.79883,-0.0625 -0.30699,0.133788 -0.57775,0.363213 -0.79687,0.664062 -0.40637,-0.489511 -0.90716,-0.828914 -1.46094,-0.830078 z m -0.002,1.058594 c 0.44774,9.41e-4 0.83808,0.174276 1.01172,1.021484 a 0.52921956,0.52921956 0 0 0 1.03711,0 c 0.12065,-0.588647 0.3645,-0.826427 0.63281,-0.943359 0.26831,-0.116932 0.61652,-0.09653 0.92383,0.04883 0.30731,0.145363 0.54631,0.403045 0.6289,0.6875 0.0826,0.284455 0.0568,0.624489 -0.31445,1.089844 l -2.38867,2.994141 -2.375,-2.992188 c -0.47449,-0.597949 -0.4173,-0.991591 -0.21289,-1.326172 0.2044,-0.334581 0.65763,-0.580882 1.05664,-0.580078 z"
       id="path9997" />
    <g
       id="g43056">
      <rect
         style="fill:url(#linearGradient15731);fill-opacity:1;fill-rule:evenodd;stroke:none;stroke-width:1.05833;stroke-linecap:round;stroke-linejoin:round;stroke-miterlimit:4;stroke-dasharray:none;stroke-opacity:1"
         id="rect10095"
         width="29.893682"
         height="30.08531"
         x="94.663338"
         y="72.051437"
         ry="9.0064306" />
      <path
         id="path10241"
         style="fill:#ffffff;fill-opacity:1;stroke:none;stroke-width:0.999999;stroke-linecap:butt;stroke-linejoin:miter;stroke-miterlimit:4;stroke-dasharray:none;stroke-opacity:1"
         d="M 383.89844 309.69727 C 381.91502 309.69727 379.72656 311.95602 379.72656 313.93945 L 379.72656 338.51367 C 379.72656 343.54864 385.85956 349.0625 390.89453 349.0625 L 425.10938 349.0625 C 427.26854 349.0625 429.53125 346.4873 429.53125 344.32812 L 429.53125 320.6582 C 429.53125 315.52206 423.46818 309.69727 418.33203 309.69727 L 383.89844 309.69727 z M 446.95508 310.64648 C 446.25615 310.63004 445.41416 310.90611 444.50781 311.63281 L 434.61133 319.56641 C 433.5336 320.43053 432.72266 321.87447 432.72266 323.25586 L 432.72266 335.5625 C 432.72266 336.75433 433.64592 338.05659 434.61133 338.89062 L 444.50781 347.44141 C 445.89596 348.64066 448.88672 349.06189 448.88672 345.72852 L 448.88672 312.44141 C 448.88672 311.51366 448.11996 310.6739 446.95508 310.64648 z "
         transform="scale(0.26458333)" />
    </g>
    <g
       id="g43052">
      <rect
         style="fill:#ffffff;fill-opacity:1;fill-rule:evenodd;stroke:#2d74f9;stroke-width:1.05833;stroke-linecap:round;stroke-linejoin:round;stroke-miterlimit:4;stroke-dasharray:none;stroke-opacity:1"
         id="rect21100"
         width="29.893682"
         height="30.08531"
         x="134.35086"
         y="72.051437"
         ry="9.0064306" />
      <path
         id="path21102"
         style="fill:url(#linearGradient21124);fill-opacity:1;stroke:none;stroke-width:0.999999;stroke-linecap:butt;stroke-linejoin:miter;stroke-miterlimit:4;stroke-dasharray:none;stroke-opacity:1"
         d="M 533.89844 309.69727 C 531.91502 309.69727 529.72656 311.95602 529.72656 313.93945 L 529.72656 338.51367 C 529.72656 343.54864 535.85956 349.0625 540.89453 349.0625 L 575.10938 349.0625 C 577.26854 349.0625 579.53125 346.4873 579.53125 344.32812 L 579.53125 320.6582 C 579.53125 315.52206 573.46818 309.69727 568.33203 309.69727 L 533.89844 309.69727 z M 596.95508 310.64648 C 596.25615 310.63004 595.41416 310.90611 594.50781 311.63281 L 584.61133 319.56641 C 583.5336 320.43053 582.72266 321.87447 582.72266 323.25586 L 582.72266 335.5625 C 582.72266 336.75433 583.64592 338.05659 584.61133 338.89062 L 594.50781 347.44141 C 595.89596 348.64066 598.88672 349.06189 598.88672 345.72852 L 598.88672 312.44141 C 598.88672 311.51366 598.11996 310.6739 596.95508 310.64648 z "
         transform="scale(0.26458333)" />
    </g>
    <g
       id="g43048">
      <g
         id="g35385"
         transform="matrix(2.7795344,0,0,2.8029244,-192.6871,-212.57023)">
        <ellipse
           style="fill:#ffffff;fill-opacity:1;fill-rule:evenodd;stroke:#00c7d2;stroke-width:0.79375;stroke-linecap:round;stroke-linejoin:round;stroke-miterlimit:4;stroke-dasharray:none;stroke-opacity:1"
           id="path21479"
           cx="108.77946"
           cy="125.60674"
           rx="4.9325891"
           ry="4.9579282" />
        <ellipse
           style="fill:none;fill-opacity:1;fill-rule:evenodd;stroke:#18a9ff;stroke-width:0.529167;stroke-linecap:round;stroke-linejoin:round;stroke-miterlimit:4;stroke-dasharray:none;stroke-opacity:1"
           id="ellipse24801"
           cx="109.72277"
           cy="125.60713"
           rx="3.3581886"
           ry="3.4595456" />
        <ellipse
           style="fill:none;fill-opacity:1;fill-rule:evenodd;stroke:#4f33ff;stroke-width:0.396875;stroke-linecap:round;stroke-linejoin:round;stroke-miterlimit:4;stroke-dasharray:none;stroke-opacity:1"
           id="ellipse28627"
           cx="110.56516"
           cy="125.63208"
           rx="2.0667279"
           ry="2.1174066" />
        <ellipse
           style="fill:none;fill-opacity:1;fill-rule:evenodd;stroke:#2d0479;stroke-width:0.264583;stroke-linecap:round;stroke-linejoin:round;stroke-miterlimit:4;stroke-dasharray:none;stroke-opacity:1"
           id="ellipse34205"
           cx="111.37592"
           cy="125.68276"
           rx="0.94362026"
           ry="0.9436205" />
      </g>
    </g>
  </g>
</svg>
